<svg width="220" height="221" viewBox="0 0 220 221" fill="none" xmlns="http://www.w3.org/2000/svg">
<path d="M106.752 84.3445C111.067 83.9403 115.833 87.381 119.227 89.7124C143.481 106.371 165.92 131.442 190.503 148.392C205.075 176.049 169.117 167.071 154.263 168.679C133.29 170.945 131.072 191.344 118.738 201.807C113.144 206.545 103.067 205.069 100.303 198.132C96.6554 188.956 97.9151 160.124 97.3041 148.411C96.8152 139.001 96.3921 129.722 96.0819 120.209C95.7059 108.824 89.0407 86.0085 106.752 84.3445Z" fill="#563CFE"/>
<path d="M36.7725 42.6051C39.4141 42.041 42.0275 42.1726 44.6033 42.9623C46.3519 43.4981 62.4836 52.7297 64.1005 54.1022C70.8973 59.8461 66.6482 68.0154 58.9489 66.7181C57.614 66.4924 36.5469 54.7321 35.2778 53.51C32.1568 50.4829 33.0686 45.0399 36.7631 42.6051H36.7725Z" fill="#563CFE"/>
<path d="M159.472 48.2267C158.597 49.1386 138.348 58.9906 136.816 59.3009C127.387 61.2186 124.595 52.7673 130.959 47.2961C133.366 45.2279 150.428 36.8424 153.371 36.4758C160.214 35.6297 163.523 43.9964 159.462 48.2267H159.472Z" fill="#563CFE"/>
<path d="M49.1063 88.0484C56.9559 86.3845 63.0288 91.5173 58.1122 98.2859C57.3131 99.3952 35.4939 110.601 33.83 110.855C27.1367 111.87 23.2071 103.287 28.6596 98.2483C29.8629 97.139 47.3483 88.4151 49.1063 88.0484Z" fill="#563CFE"/>
<path d="M87.4521 19.7236C88.8153 14.8728 99.7107 16.4239 99.7107 19.7236V46.6944C99.7107 50.6897 87.4521 50.6991 87.4521 46.6944V19.7236Z" fill="#563CFE"/>
</svg>
