<svg width="220" height="221" viewBox="0 0 220 221" fill="none" xmlns="http://www.w3.org/2000/svg">
<path d="M203.484 152.145C202.487 149.242 199.249 147.054 196.216 148.624C195.988 148.744 193.042 152.264 192.988 152.513C192.219 155.99 193.411 161.936 192.901 165.89C192.414 169.691 188.959 175.01 185.883 177.295C184.594 178.259 179.98 180.566 178.637 180.869C176.059 181.454 168.856 180.869 165.661 180.869C165.574 180.869 164.729 180.046 164.859 179.797C168.715 177.609 171.315 174.143 169.018 169.637C166.592 167.677 163.224 167.98 160.722 169.681C159.855 170.265 149.609 180.588 148.84 181.595C147.323 183.577 145.948 186.404 147.204 188.82C150.302 190.596 160.44 203.377 162.639 203.962C163.798 204.265 166.126 204.46 167.22 204.103C167.459 204.027 169.647 201.666 169.733 201.232C169.961 199.997 169.701 198.254 169.636 196.943L164.859 191.712H177.835C177.889 191.712 177.597 190.769 178.192 190.618C186.045 188.625 190.681 187.866 196.562 181.205C200.364 176.905 203.04 169.388 203.809 163.788C204.069 161.947 204.014 153.672 203.484 152.123V152.145Z" fill="#563CFE"/>
<path d="M148.081 125.359L148.623 137.468C150.28 137.501 152.208 137.468 153.789 136.97C175.095 130.233 191.017 111.094 193.53 87.8605C194.093 82.6939 193.161 77.2458 192.425 72.6641C185.915 32.1549 136.914 13.5466 104.485 37.2781C96.0149 43.4845 84.8803 58.0526 83.3531 68.4182C83.1906 69.5555 83.1581 70.6711 83.2123 71.8084H91.5958C92.798 71.8084 100.954 73.8556 102.579 74.3538C112.338 77.3324 121.36 83.4197 128.596 89.9943C135.571 96.3415 143.695 109.274 146.207 118.448C146.846 120.799 146.392 124.265 148.07 125.348L148.081 125.359Z" fill="#563CFE"/>
<path d="M26.4452 56.3304C26.5211 55.8105 28.0158 50.9039 28.2107 50.4923C28.5465 49.7883 29.3372 49.745 29.7054 49.1492C30.0196 48.6293 29.8462 47.7195 30.4095 47.0046C31.8934 45.1308 38.4247 40.8849 40.7968 40.8849H54.5851C54.4876 42.6179 50.285 44.99 49.8626 45.8998C48.7903 48.1744 50.7291 52.2687 52.9929 53.0593C54.1626 53.4709 55.1375 53.5684 56.3506 53.2326C60.5423 52.0737 67.2794 41.5131 71.6986 39.0869C72.9875 37.0831 72.7817 34.3969 72.121 32.209C68.4709 30.0969 59.4158 17.9658 56.3397 17.1426C55.4082 16.8935 53.7186 16.8177 52.8087 17.0235C52.5921 17.0776 49.7868 19.8938 49.7326 20.0996C48.4762 26.0676 53.112 25.5694 54.5851 30.0211H41.8799C34.2871 30.0211 22.4051 39.5852 18.9391 46.1706C18.7983 46.4414 17.3902 49.7666 17.3361 49.9724C16.2204 54.11 15.4514 66.1978 16.632 70.0321C17.9859 74.4296 22.86 74.5487 25.4162 70.9961C27.6258 67.9308 25.9253 60.2081 26.456 56.2979L26.4452 56.3304Z" fill="#563CFE"/>
<path d="M76.941 121.665C76.3886 122.358 76.107 123.171 76.107 124.113C76.107 125.055 76.3886 125.944 76.9518 126.68C77.515 127.406 78.5007 128.012 79.9088 128.5V119.921C78.4899 120.387 77.4934 120.972 76.941 121.665Z" fill="#563CFE"/>
<path d="M84.7829 142.071V152.784C86.6784 152.361 88.0539 151.657 88.9313 150.693C89.8086 149.718 90.2527 148.635 90.2527 147.433C90.2527 146.382 89.8844 145.418 89.1371 144.541C88.4006 143.664 86.9492 142.84 84.7829 142.082V142.071Z" fill="#563CFE"/>
<path d="M82.1508 82.2065C51.3897 82.2065 26.456 107.14 26.456 137.901C26.456 168.662 51.3897 193.596 82.1508 193.596C112.912 193.596 137.846 168.662 137.846 137.901C137.846 107.14 112.912 82.2065 82.1508 82.2065ZM101.214 152.372C100.131 154.397 98.7552 156.087 97.0764 157.452C95.3975 158.806 93.6103 159.791 91.7257 160.409C89.8302 161.015 87.5231 161.384 84.7828 161.492V167.796H79.9087V161.492C76.6376 161.2 73.9839 160.68 71.9476 159.911C69.9113 159.142 68.1567 158.08 66.6728 156.726C65.1889 155.372 64.0516 153.91 63.2501 152.339C62.4485 150.769 61.8528 148.873 61.4521 146.653L74.9263 145.083C75.327 147.281 75.8686 148.873 76.5402 149.848C77.2225 150.823 78.3381 151.69 79.8978 152.448V140.663C75.4028 139.418 72.2184 138.335 70.3446 137.425C68.4708 136.515 66.8352 135.053 65.4597 133.038C64.0841 131.023 63.3909 128.565 63.3909 125.673C63.3909 121.708 64.7773 118.405 67.5393 115.74C70.3121 113.076 74.428 111.603 79.8978 111.31V108.007H84.772V111.31C89.7544 111.624 93.567 112.805 96.199 114.841C98.8311 116.888 100.553 119.694 101.355 123.246L88.942 125.218C88.3246 123.636 87.7614 122.542 87.2523 121.936C86.7433 121.329 85.9201 120.712 84.772 120.084V129.734C91.5307 131.532 96.0474 133.439 98.3111 135.443C101.311 138.129 102.817 141.551 102.817 145.689C102.817 148.115 102.275 150.347 101.203 152.372H101.214Z" fill="#563CFE"/>
</svg>
