<svg width="220" height="221" viewBox="0 0 220 221" fill="none" xmlns="http://www.w3.org/2000/svg">
<path d="M203.948 60.4692V192.332C203.948 192.737 200.856 198.907 200.231 199.631C197.814 202.378 193.288 204.353 189.596 204.292L28.5882 204.267C23.7308 204.562 16.0398 197.386 16.0398 192.945V60.4692H203.948ZM140.077 96.7898C104.186 76.9674 65.2032 98.6788 43.5899 128.523C42.6822 129.774 40.5356 129.958 41.382 132.669C41.4924 133.024 45.16 137.931 45.7734 138.728C58.4077 154.785 77.7026 167.934 96.6663 173.626C121.751 181.157 153.312 161.863 169.369 143.684L178.863 132.35C170.694 119.078 158.317 108.946 145.719 99.9912L140.065 96.7898H140.077Z" fill="#563CFE"/>
<path d="M16.0398 50.0551V28.3314C16.0398 23.0569 24.2705 16.0896 29.7903 16.9851L191.411 17.0096C194.723 17.3899 199.286 19.8431 201.175 22.554C201.372 22.8361 203.96 28.0125 203.96 28.3314V50.0551H16.0398ZM46.6443 29.2514H37.4691V38.4266H46.6443V29.2514ZM57.0461 29.2514V38.4266H66.2213V29.2514H57.0461ZM76.6354 29.2514V38.4266H85.8106V29.2514H76.6354Z" fill="#563CFE"/>
<path d="M141.205 131.871C141.205 149.191 127.16 163.236 109.828 163.236C92.4956 163.236 78.4507 149.191 78.4507 131.871C78.4507 114.551 92.4956 100.506 109.828 100.506C127.16 100.506 141.205 114.551 141.205 131.871ZM91.5388 113.3C87.3928 117.471 88.5459 126.327 94.2374 128.854C103.866 133.135 112.551 120.746 104.836 113.374C101.732 110.418 94.6054 110.234 91.5511 113.3H91.5388Z" fill="#563CFE"/>
</svg>
