<svg width="221" height="221" viewBox="0 0 221 221" fill="none" xmlns="http://www.w3.org/2000/svg">
<path d="M110.13 16.64C58.2299 16.64 16.1699 58.71 16.1699 110.6C16.1699 162.49 58.2399 204.56 110.13 204.56C162.02 204.56 204.09 162.49 204.09 110.6C204.09 58.71 162.02 16.64 110.13 16.64ZM90.0599 57.54C100.9 57.54 109.7 66.33 109.7 77.18C109.7 88.03 100.91 96.82 90.0599 96.82C79.2099 96.82 70.4199 88.03 70.4199 77.18C70.4199 66.33 79.2099 57.54 90.0599 57.54ZM84.4499 158.22L73.8399 150.72L135.83 63L146.44 70.5L84.4499 158.22ZM130.2 163.71C119.33 163.71 110.53 154.9 110.53 144.04C110.53 133.18 119.34 124.37 130.2 124.37C141.06 124.37 149.87 133.18 149.87 144.04C149.87 154.9 141.06 163.71 130.2 163.71Z" fill="#563CFE"/>
<path d="M130.21 136.93C126.3 136.93 123.12 140.1 123.12 144.02C123.12 147.94 126.29 151.11 130.21 151.11C134.13 151.11 137.3 147.94 137.3 144.02C137.3 140.1 134.13 136.93 130.21 136.93Z" fill="#563CFE"/>
<path d="M90.05 84.28C93.97 84.28 97.14 81.1101 97.14 77.1901C97.14 73.2701 93.97 70.1 90.05 70.1C86.13 70.1 82.96 73.2701 82.96 77.1901C82.96 81.1101 86.13 84.28 90.05 84.28Z" fill="#563CFE"/>
</svg>
