<svg width="220" height="221" viewBox="0 0 220 221" fill="none" xmlns="http://www.w3.org/2000/svg">
<path d="M21.4248 69.1C21.4248 66.3386 23.6634 64.1 26.4248 64.1H130.425C141.47 64.1 150.425 73.0543 150.425 84.1V152.1C150.425 154.861 148.186 157.1 145.425 157.1H41.4248C30.3791 157.1 21.4248 148.146 21.4248 137.1V69.1Z" fill="#563CFE"/>
<path d="M189.145 59.9344C181.815 61.1544 164.715 80.9444 157.825 86.1344L157.435 134.144C157.865 135.374 158.595 136.384 159.435 137.364C162.745 141.244 177.175 153.394 181.755 156.794C188.135 161.534 194.375 164.664 198.575 155.574L197.955 63.6244C195.735 60.9244 192.825 59.3244 189.155 59.9344H189.145Z" fill="#563CFE"/>
<path d="M189.145 59.9344C192.815 59.3244 195.725 60.9244 197.945 63.6244L198.565 155.574C194.365 164.664 188.125 161.534 181.745 156.794C177.175 153.394 162.745 141.244 159.425 137.364C158.585 136.384 157.855 135.384 157.425 134.144L157.815 86.1344C164.705 80.9444 181.805 61.1644 189.135 59.9344L189.145 59.9344Z" fill="#563CFE"/>
</svg>
